<svg xmlns="http://www.w3.org/2000/svg" width="75" height="64" fill="none" viewBox="0 0 75 64"><path fill="#66E466" d="M23.877 23.0743C23.6317 22.7312 23.5877 22.195 23.637 21.7701C23.6518 21.6367 23.898 21.6258 23.9189 21.5316C23.9601 21.3484 23.8042 21.2345 23.8648 21.0469C23.8861 20.9844 24.2676 20.9437 24.2818 20.8813C24.3578 20.542 24.1885 20.2892 24.1877 19.9657C24.2192 18.416 23.9494 17.1793 24.2897 14.9807C24.3172 14.8448 24.3494 14.7118 24.3853 14.5835C24.6022 13.7967 25.2445 13.1964 25.4256 12.5785C25.4472 12.5046 25.1374 12.3784 25.1209 12.3523C24.8769 11.9397 25.4157 12.3453 25.5654 12.2705C26.1615 11.9729 26.5221 11.5501 26.7489 11.0882C26.8449 10.8922 26.2081 10.6205 26.6297 10.7005C26.6582 10.706 26.8866 10.9793 26.9528 10.9613C27.1014 10.9202 27.2203 10.6993 27.3097 10.647C27.482 10.548 27.5012 10.5238 27.6313 10.4004C27.8126 10.2335 28.1413 10.1666 28.2826 9.93679C28.311 9.88907 28.0467 9.68519 28.0447 9.57436C28.0492 9.56468 28.0549 9.55487 28.0618 9.54498C28.2075 9.32318 28.7136 9.05839 28.8906 9.08177C29.0732 9.09284 29.1203 9.38345 29.1708 9.43215C29.5498 9.85881 29.7026 9.03245 29.7779 8.99972C30.1289 8.80155 30.4785 8.75636 30.8362 8.79196C31.7648 8.87403 32.3032 9.37803 32.7484 9.68755C33.2964 10.0791 33.7861 10.427 34.0738 10.8261C34.4102 11.3047 34.4805 11.7868 34.7578 12.2014C34.7866 12.2456 35.1247 11.9814 35.1614 12.0365C35.5492 12.6232 35.7976 13.2555 35.7889 13.9639C35.7877 14.0354 35.4122 14.105 35.3899 14.1835C35.264 14.6667 34.7833 15.4665 36.3846 15.124C36.4172 15.3967 36.4609 15.7218 36.224 16.0458C36.0712 16.254 35.6404 16.244 35.8616 16.3624C35.9111 16.3894 36.2325 16.2281 36.2812 16.2778C36.4863 16.4875 36.4608 16.7957 36.7101 16.9909C36.7617 17.0307 37.0632 16.927 37.1225 16.9253C37.6049 16.9182 36.9254 17.3364 36.8834 17.3935C36.5761 17.8396 36.7976 18.0365 36.8666 18.3522C36.8822 18.4252 37.2759 18.2355 37.306 18.3027C37.4567 18.6536 37.5093 19.0458 37.3999 19.4453C37.3745 19.5342 37.0023 19.5362 36.9719 19.5823C36.8412 19.7825 37.5232 19.6809 37.4099 19.8732C37.3868 19.9133 37.0769 19.9547 37.0445 19.9676C36.5356 20.1673 37.2998 20.1046 37.3212 20.1273C37.6077 20.4032 36.8599 20.7452 37.0204 21.0276C37.0404 21.0619 37.4168 20.9156 37.4493 21.0167C37.4812 21.1149 37.5081 21.2146 37.5299 21.3156C37.6782 22.0367 37.5569 22.7702 37.2442 23.3695C37.1877 23.4788 36.8977 23.3764 36.8607 23.3812C36.2829 23.4489 37.0396 23.5802 37.065 23.6208C37.2456 23.9301 36.5768 24.106 37.4552 24.4145C36.9806 25.5594 37.2454 26.6899 36.3156 27.5802C36.3046 27.592 35.9331 27.5237 35.9128 27.548C35.6666 27.8418 36.2561 27.8522 36.9549 28.0945C37.0571 28.1291 36.8055 28.1683 36.5643 28.2027C36.3898 28.2363 36.2206 28.2609 36.1937 28.2658C35.9568 28.3081 35.4007 28.2142 35.3543 28.2303C34.9898 28.3584 36.8428 28.4572 36.8266 28.6793C36.823 28.6858 36.4848 28.6309 36.4495 28.6464C36.3389 28.6941 36.4696 28.7606 36.3479 28.8053C36.066 28.9087 35.1651 28.8663 35.6692 29.101C35.7345 29.1314 36.7858 29.1981 36.7162 29.3867C36.6879 29.4615 36.6672 29.8021 36.5876 29.8865C36.5084 29.9717 36.1799 29.8657 36.1645 29.8707C35.6883 30.0636 35.5158 29.9454 34.8419 29.9802C34.1705 30.0127 35.7383 30.1882 35.906 30.2623C36.073 30.3379 35.6819 30.4653 35.5482 30.4915C35.4146 30.5175 35.209 30.4326 35.1314 30.4613C34.624 30.6499 35.8903 30.685 36.1258 30.8063C36.6826 31.0967 35.5023 31.0796 35.3612 31.2455C35.3232 31.2896 35.5926 31.2898 35.6106 31.3372C35.6782 31.5253 35.3012 31.5751 35.6014 31.8233C35.6502 31.8646 36.3204 32.1318 35.7945 32.1552C35.7187 32.1584 35.4371 32.072 35.3611 32.136C35.2467 32.2342 35.1536 32.4182 35.2313 32.5538C35.2889 32.6532 35.7791 32.6261 35.6146 32.7132C35.5414 32.7511 35.2774 32.6191 35.1629 32.6941C35.0488 32.7672 35.0242 33.009 35.021 33.0954C35.0174 33.1849 35.3849 33.1914 35.4081 33.2022C35.5406 33.2659 35.6886 33.4633 35.6858 33.4788C35.6172 34.2356 34.9103 34.8483 35.015 35.615C35.0226 35.6757 35.4087 35.6863 35.4138 35.6961C35.5474 35.9173 34.5548 35.6278 34.1979 35.7219C34.9737 35.8019 34.8234 35.8638 34.8904 36.0148C34.9233 36.0877 35.2275 36.0888 35.2573 36.0988C35.6996 36.2564 35.1031 36.2534 34.9806 36.2569C34.5302 36.2665 35.044 36.4023 34.7429 36.4105C34.4439 36.4193 34.0216 36.262 34.0107 36.3972C34.2831 36.4688 35.0192 36.4579 35.1241 36.5739C35.52 37.0156 34.8707 37.6529 34.7771 37.9647C34.6846 38.2635 34.7254 38.3684 34.6057 38.5409C34.3902 38.8484 34.9412 38.7822 35.1669 39.0086C35.3928 39.2358 34.0781 39.0037 33.7904 39.0041C33.5028 39.0044 33.7926 39.0657 33.6325 39.0864C33.4724 39.107 33.2866 39.0088 33.2193 39.0886C33.1516 39.1725 33.6363 39.4438 33.9312 39.5039C34.5561 39.628 35.2284 39.5892 34.9743 39.7875C34.9593 39.7989 34.6148 39.7238 34.5749 39.7694C34.2688 40.1365 34.2155 40.533 33.9439 40.8986C33.9061 40.9483 33.5223 40.8669 33.4959 40.8956C33.2194 41.1963 33.8837 41.1388 34.5952 41.3793C33.6316 41.2542 33.0305 41.3102 33.0045 41.5508C32.9885 41.6968 33.4131 41.707 33.703 41.8267C33.7905 41.8625 33.4917 41.9434 33.6889 41.9788C34.3334 42.0949 35.0687 42.0544 34.7584 42.2863C34.7438 42.2964 34.391 42.2319 34.3663 42.2691C34.2053 42.5075 34.8831 42.5848 34.9446 42.8584C34.9686 42.9646 34.8718 43.1027 34.7577 43.246C34.6413 43.394 34.5063 43.5422 34.4622 43.6615C33.375 43.566 33.6049 43.813 34.3461 43.9728C34.3015 44.1271 34.328 44.3022 34.2097 44.4447C34.1693 44.4936 33.8581 44.4286 33.8235 44.4319C33.2806 44.4799 34.0025 44.6188 34.0276 44.656C34.2676 45.0554 33.6833 45.2911 34.1806 45.7041C34.1986 45.7187 34.949 45.8293 34.388 45.8578C34.3494 45.8592 34.0209 45.7025 33.9745 45.8639C33.9282 46.0243 33.4859 46.283 33.8038 46.5562C33.8803 46.6224 34.4711 46.8465 33.9793 46.8923C33.9125 46.8982 33.6994 46.8522 33.5766 46.8568C33.185 46.8733 33.9385 47.0183 33.2824 47.0086C32.6262 46.9991 32.1204 47.0923 32.5309 47.3841C32.5428 47.393 33.1354 47.5367 33.1151 47.6063C33.0821 47.7185 32.9318 47.862 32.9171 47.9798C32.9103 48.0364 33.2885 48.0595 33.2937 48.0704C33.4406 48.4916 33.0636 48.7079 32.8482 49.0932C32.8085 49.161 33.2757 49.4719 32.8495 49.5425C32.3823 49.6229 30.5908 49.1288 30.9587 49.5642C31.1054 49.7399 33.3777 50.3666 32.1314 50.4C32.3281 50.9687 31.6207 51.3205 31.937 51.9164C31.951 51.9429 32.5775 52.1508 32.5575 52.2029C32.5266 52.2805 32.2178 52.2604 32.1858 52.3154C32.0459 52.5353 32.256 52.8128 32.1695 53.0341C32.137 53.1201 31.8326 53.0269 31.7944 53.1275C31.7557 53.2326 32.1523 53.3772 31.9265 53.4852C31.7557 53.5613 30.8964 53.5164 30.7713 53.6568C31.2295 53.7388 31.4234 53.8064 31.5382 53.8833L31.5444 53.855C31.6289 53.9297 31.6613 54.0062 31.7383 54.1077C31.772 54.151 32.0649 54.1859 32.0956 54.2095C32.2279 54.3037 31.9787 54.3055 32.1273 54.3969C32.163 54.4188 32.4443 54.4775 32.4896 54.4974C32.887 54.6621 32.2293 54.6866 32.1134 54.7059C31.6757 54.7549 32.0415 54.851 31.8675 54.9151C31.6936 54.9875 31.4931 54.8411 31.3839 54.94C31.1571 55.1532 31.2106 55.4706 31.2325 55.7098C31.2429 55.8064 31.6126 55.6837 31.6229 55.6964C31.7109 55.8099 31.5496 55.9833 31.7491 56.0354C31.8231 56.0653 31.9481 56.0814 32.1604 56.089C30.2059 56.4111 32.3743 56.1847 31.9664 56.5216C31.9321 56.5471 31.0018 56.4693 30.868 56.4176C30.7341 56.3732 31.0256 56.3091 30.8067 56.2703C30.7745 56.2639 30.419 56.2803 30.1461 56.3107L30.1788 56.4598C30.0092 56.4594 29.8685 56.4527 29.8464 56.446C29.3813 56.2825 30.7497 55.9794 30.823 55.9602C31.6159 55.7098 30.6603 55.6533 30.5891 55.5791C30.2676 55.3158 30.4669 55.0653 30.271 54.8209C30.1456 54.6592 29.2388 54.5448 29.2836 54.4053C29.4434 53.9317 30.7138 54.1078 29.7334 53.4741C29.5853 53.3729 29.0348 53.2513 29.0486 53.1529L28.9798 53.4624C28.9798 53.4305 29.0662 53.3963 29.2971 53.3615C29.3495 53.3488 30.0883 53.3001 29.6604 53.1167C29.6064 53.0936 29.3202 53.04 29.2994 53.0186C29.1656 52.8747 29.4075 52.8464 29.3223 52.7048C29.2367 52.5648 29.1035 52.388 29.2267 52.2785C29.3011 52.2099 29.8531 52.219 29.9908 52.2091C30.3875 52.1805 29.7963 51.9415 30.2634 51.971C30.733 51.9998 31.3987 52.2726 31.7293 52.1605C30.9898 52.0004 30.2324 51.8284 29.4896 51.6638C29.5931 51.2964 29.9075 50.9837 29.9488 50.6089C29.953 50.5629 29.545 50.5288 29.5393 50.4775C29.5171 50.2596 29.8368 50.1374 29.7647 49.9029C29.7072 49.7216 29.3182 49.4625 29.2435 49.2721C30.1138 49.3279 29.8724 49.017 29.9826 48.8499C30.021 48.7902 30.2479 48.8351 30.3304 48.8019C30.6362 48.6746 29.868 48.6251 29.7578 48.5569C29.2865 48.2687 30.9966 48.5424 30.9952 48.2934C30.9959 48.2799 30.1116 47.971 30.0583 47.9404C29.7106 47.7451 30.379 47.9704 30.4602 47.8966C30.6084 47.7618 30.8441 47.6845 30.6054 47.4608C30.5346 47.3953 29.986 47.178 30.4412 47.1436C30.5009 47.1388 30.8014 47.1918 30.8207 47.1835C31.1452 47.0285 30.1977 46.881 29.8928 46.7225C29.5876 46.5656 30.2673 46.4853 30.4613 46.4749C30.9631 46.4488 30.66 46.5763 30.7072 46.588C31.2693 46.7287 31.1895 46.5844 31.2513 46.4929C32.1843 46.6075 32.1476 46.4598 31.3115 46.3974C31.2202 46.3907 31.2965 46.4791 31.2513 46.4929C30.3496 46.2806 30.2525 46.1188 31.1289 46.0635C31.5395 46.0378 31.9971 46.1732 31.857 45.9103C31.7937 45.7909 31.1463 45.752 30.983 45.6353C30.61 45.372 31.2428 45.161 31.1731 44.925C31.1478 44.8394 30.7869 44.8801 30.7574 44.8206C30.678 44.6634 30.9558 44.5639 30.8356 44.4012C30.8242 44.3865 30.452 44.3815 30.4519 44.3352C30.4438 43.9878 30.7083 43.7091 30.7451 43.3467C30.7554 43.2437 30.6964 43.0858 30.6579 42.9366C30.6321 42.8263 30.6163 42.7216 30.639 42.6439C30.7337 42.3128 31.3037 41.9493 31.197 41.6506C31.1288 41.4583 30.7558 41.4685 30.5105 41.3683C30.0347 41.1791 30.9334 40.9702 31.0718 40.9472C31.0764 40.9463 31.1495 41.1157 31.3467 41.0457C31.7463 41.0297 31.0733 40.9492 31.0718 40.9472C31.1613 40.9297 31.2731 40.6185 31.2081 40.5507C31.1725 40.5134 30.8207 40.5011 30.8088 40.4822C30.5345 40.0177 30.4852 39.5849 30.6917 39.1607C30.6996 39.1538 31.0897 39.2035 31.1031 39.1868C31.3011 38.9588 30.8397 38.7409 30.5769 38.5046C30.3141 38.2686 30.4266 38.1128 31.1111 38.0581C31.0435 37.8891 31.3638 37.7021 31.5582 37.591C31.7527 37.4792 30.9942 37.377 30.9804 37.3636C30.539 36.9545 30.9985 36.7916 31.1096 36.4344C31.1639 36.2628 31.0965 35.8985 31.0374 35.6986C30.9898 35.5366 31.1793 35.4685 31.0832 35.3168C31.0704 35.2963 30.7301 35.2715 30.7178 35.2641C30.3332 35.0591 31.1498 35.2394 31.3015 35.2265C31.8533 35.178 32.1483 35.1436 31.922 34.915C31.8701 34.8636 30.6994 34.5703 30.6416 34.475C30.5684 34.3532 30.9886 34.4526 30.901 34.3251C30.8939 34.3143 30.6309 34.28 30.6521 34.2121C30.7477 33.891 30.9515 33.5551 30.9741 33.2185C30.9784 33.1711 30.5534 33.1702 30.5528 33.1007C30.55 32.7774 30.6165 32.4418 30.8578 32.1676C30.9183 32.101 31.2023 32.1922 31.2912 32.1894C31.8292 32.1722 31.0908 31.9167 31.08 31.8904C30.7994 31.2868 31.5525 30.9797 31.3045 30.3996C31.2897 30.3677 30.5068 30.0281 31.2199 30.0345C31.2673 30.0354 31.9972 30.0407 31.5195 29.8869C31.4895 29.8775 31.1127 29.8843 31.1645 29.7872C31.2163 29.6907 30.9919 29.4949 31.4149 29.4115C31.5482 29.3852 32.2776 29.3682 31.722 29.1705C31.6836 29.1539 30.4136 28.8172 31.3123 28.8477C31.4602 28.8528 32.4035 28.9638 31.9348 28.7618C31.8438 28.7237 31.628 28.754 31.5038 28.6666C31.3121 28.5342 31.5789 28.4059 31.1678 28.237C31.0951 28.2063 30.4598 28.0629 30.9528 28.0185C31.03 28.0111 31.3447 28.056 31.3829 28.0157C31.417 27.9799 31.4378 27.9427 31.4504 27.9047C31.5127 27.6179 31.4328 27.3254 31.6402 27.0865C31.7299 26.984 32.2318 27.101 32.3818 27.0071C32.5317 26.9131 32.6918 26.7193 32.4765 26.5764C32.2612 26.4319 31.4353 26.432 31.3964 26.2537C31.2301 25.4758 31.8229 24.9374 31.9857 24.3866C32.0099 24.3054 31.7105 24.3252 31.7247 24.2046C31.7816 23.7402 31.5834 23.0962 32.2105 22.8692C32.7165 22.6608 33.0836 22.972 33.2926 22.7907C33.3922 22.6939 32.4427 22.5958 32.4127 22.5822C32.108 22.4159 32.521 22.2941 32.3788 22.1778C32.3493 22.1565 31.9699 22.2245 31.9493 22.2086C31.9254 22.1918 31.9264 22.173 31.9371 22.1531C31.9506 22.0536 32.006 21.9458 31.9703 21.8582C31.9456 21.8001 31.6575 21.859 31.6707 21.8002C31.699 21.6607 31.8004 21.5238 32.0475 21.3432C32.0699 21.3264 32.4445 21.3426 32.4394 21.239C32.4304 21.0736 32.657 20.8149 32.3431 20.6829C32.2488 20.6438 31.5913 20.7803 32.02 20.5661C32.1095 20.5214 32.905 20.383 32.1935 20.3907C32.0748 20.3895 31.1074 20.3692 31.6715 20.1216C31.82 20.0563 32.4442 19.8273 32.327 19.7836C32.3088 19.7785 31.9666 19.8987 31.9192 19.852C31.7583 19.6868 31.7446 19.4757 31.5834 19.3085C31.5398 19.2643 31.1994 19.4372 31.146 19.3692C30.9987 19.1825 31.0173 18.8976 31.0685 18.6595C31.0881 18.5718 31.4 18.5356 31.4307 18.5206C31.9285 18.2742 31.2046 18.4337 31.1546 18.4175C30.8524 18.3109 31.1407 18.0718 30.9985 17.9323C30.9603 17.8942 30.6362 18.0365 30.6034 18.0373C30.2814 18.041 30.905 17.9116 30.9515 17.8303C31.084 17.6027 30.9916 17.4219 30.8902 17.2732C30.8521 17.2178 30.4924 17.4247 30.463 17.3743C30.2822 17.0817 30.1953 16.7518 30.2796 16.3734C30.2963 16.3022 30.6003 16.2132 30.6615 16.1737C31.0884 15.8927 30.4073 16.047 30.3369 16.0495C30.0127 16.0546 30.2447 15.8933 30.1502 15.8133C29.6889 15.4301 29.5531 14.8218 29.4585 14.5072C29.4036 14.3076 29.3997 14.1616 29.5006 14.1401C29.608 14.0947 29.8337 14.3269 30.7082 14.4127C30.7154 14.4139 30.7224 14.4152 30.7291 14.4166C30.7544 14.4211 30.728 14.8397 30.7554 14.8488C30.8858 14.8821 30.9824 14.8756 31.1725 14.816C31.3584 14.7488 31.6557 14.6496 32.1211 14.2608C32.0442 14.3306 31.9745 14.4098 31.9212 14.5043C31.9046 14.5325 32.209 14.7907 32.1932 14.8443C32.1629 14.9561 32.0625 15.0254 31.9035 15.0081C31.8261 15.0006 31.6259 14.7175 31.5516 14.7163C31.3772 14.7142 31.2685 14.792 31.2408 14.9223C31.2303 14.9776 31.5856 15.1862 31.5501 15.2352C31.3121 15.5804 31.223 15.8553 30.6792 15.7919C30.6427 15.7855 29.8755 15.482 30.0082 15.5766C30.2207 15.6617 30.472 15.7583 30.7 15.8468C30.7174 15.9079 30.7287 15.9048 30.7221 15.833C30.7106 15.7371 30.6487 15.9045 30.6205 16.1054C30.5898 16.3131 30.5789 16.579 30.6117 16.858C30.6157 16.8911 31.0363 16.7597 31.0461 16.8222C31.1042 17.1849 31.3038 17.5295 30.9858 18.0469C30.955 18.0983 30.2041 18.2651 30.349 18.3621C30.3751 18.3788 30.524 18.5421 30.6983 18.5467C30.7243 18.5466 31.0617 18.4196 31.0878 18.4762C31.2342 18.8082 31.2619 19.1931 31.1631 19.6086C31.1466 19.6761 30.7631 19.7307 30.7484 19.7802C30.6473 20.1333 31.026 20.3497 30.7946 20.7342C30.6387 20.9921 29.9937 21.1497 29.4197 21.4732C29.3385 21.5186 29.3686 21.6415 29.017 21.7808C28.1329 22.1322 27.1339 22.434 26.194 22.8151C25.9918 22.8983 26.2813 22.9985 25.7466 23.0767C25.7111 23.0829 25.4944 23.0038 25.3146 23.0332C25.1898 23.0525 24.8447 23.2284 24.678 23.2344C24.5116 23.2403 24.7935 23.0723 24.5901 23.0566C24.384 23.04 23.9838 23.2214 23.877 23.0743ZM32.4275 37.1015C32.8065 37.0223 31.4716 36.8495 31.7763 37.0186C31.7926 37.027 32.4089 37.1058 32.4275 37.1015ZM30.901 51.1894C31.5135 51.1575 30.6784 50.8828 30.2079 50.8963C29.7382 50.9078 30.7153 51.1997 30.901 51.1894ZM31.0016 52.8487C31.4969 52.7612 29.6327 52.351 29.971 52.624C29.99 52.6399 30.9728 52.8539 31.0016 52.8487ZM29.0764 21.0592C29.0598 21.0658 29.0737 21.1595 29.0912 21.1556C29.5108 21.0611 29.484 20.878 29.0764 21.0592ZM31.147 54.5256C31.4102 54.5047 31.148 54.2809 30.8184 54.2996C30.551 54.3219 30.8171 54.562 31.147 54.5256ZM34.7109 31.1517C34.731 31.1532 34.7591 31.0881 34.6469 31.0723C34.285 31.0229 34.3728 31.1312 34.7109 31.1517ZM31.1099 57.1341C31.2726 56.8368 32.8786 56.8387 32.5843 57.3205C32.5313 57.3983 32.1438 57.0106 31.9784 57.0861C31.6829 57.2012 32.5944 57.6083 32.0266 57.6434C31.9252 57.6428 31.0994 57.1459 31.108 57.1329C31.1087 57.1333 31.1093 57.1337 31.1099 57.1341ZM34.0415 37.2169C34.0595 37.2165 34.0873 37.1229 34.07 37.1187C33.6516 37.0174 33.5952 37.2066 34.0415 37.2169ZM35.9812 27.295C36.0192 27.2948 36.0843 27.0906 36.0511 27.0782C35.3764 26.8611 35.2399 27.2924 35.9812 27.295ZM34.4328 43.6629C34.8526 43.8025 34.8918 43.9369 34.3467 43.9723C34.3845 43.8711 34.3978 43.7647 34.4328 43.6629ZM9.17772 50.7828C9.33158 50.4302 9.75803 50.1328 10.1402 49.959C10.2601 49.9036 10.3986 50.1073 10.4902 50.0753C10.6657 50.0164 10.6793 49.8242 10.8697 49.7759C10.934 49.7603 11.1721 50.0612 11.2328 50.0395C11.5607 49.9212 11.6812 49.6413 11.9495 49.4623C13.2675 48.5857 14.3931 47.5787 15.5811 46.5825C15.941 46.2801 16.5397 46.0813 16.8356 45.6784L16.8234 45.6911C16.848 45.6566 16.8705 45.6201 16.8904 45.5816C16.9187 45.5262 16.6545 45.3226 16.6426 45.2955C16.4643 44.8766 16.9069 45.3824 17.0538 45.3575C17.628 45.2653 18.0096 44.9102 18.2309 44.4945C18.3227 44.3186 17.715 44.0006 18.1143 44.1184C18.1416 44.1261 18.3623 44.4047 18.4256 44.393C18.5675 44.3671 18.6841 44.1548 18.7652 44.1106C18.9276 44.0218 18.9456 43.998 19.0668 43.8778C19.2318 43.7187 19.5499 43.641 19.6633 43.4088C19.6867 43.3586 19.3789 43.1576 19.3928 43.0547C19.4067 42.9521 19.585 42.8119 19.6996 42.8159C19.8132 42.8211 19.9945 43.0418 20.0504 43.0775C20.5193 43.3825 20.1532 42.668 20.1635 42.6304C20.3552 41.9733 21.0306 41.9018 21.4271 41.4962C21.7301 41.185 21.9521 40.7565 22.255 40.4788C22.6186 40.1473 23.0492 39.9924 23.3625 39.632C23.3956 39.5945 23.0542 39.3355 23.0942 39.289C23.5241 38.7901 24.014 38.37 24.6798 38.1172C24.7471 38.0919 24.948 38.417 25.0308 38.4077C25.5272 38.349 26.4913 38.436 25.5281 37.1094C25.7669 36.9654 26.047 36.7852 26.4478 36.8529C26.7061 36.896 26.8791 37.2933 26.8966 37.0357C26.901 36.9778 26.6136 36.761 26.6389 36.6936C26.7453 36.4102 27.037 36.2901 27.1063 35.9695C27.1197 35.9037 26.8885 35.684 26.8602 35.6317C26.6339 35.2051 27.3204 35.6116 27.3933 35.6192C27.9415 35.6715 28.0195 35.3715 28.2696 35.1488C28.328 35.0971 27.9669 34.8496 28.0126 34.7885C28.2561 34.4739 28.571 34.2281 28.9816 34.1038C29.0735 34.0771 29.2653 34.3968 29.3219 34.3977C29.5668 34.4 29.1254 33.8702 29.352 33.8622C29.3991 33.8599 29.5971 34.102 29.6253 34.1226C30.0673 34.4461 29.6131 33.8273 29.6212 33.7968C29.7125 33.3978 30.4074 33.8388 30.5689 33.5361C30.5877 33.4993 30.2555 33.2686 30.3249 33.1828C30.784 32.6106 31.4235 32.173 32.1686 31.9248C32.2834 31.8864 32.4237 32.1595 32.4534 32.182C32.9208 32.5296 32.4622 31.9123 32.4699 31.8665C32.5432 31.5206 33.1739 31.8171 32.7085 31.0097C33.2431 30.734 33.6502 30.3204 34.093 29.9411C34.5705 29.5323 35.0883 29.1659 35.8417 29.0761C35.8595 29.0732 36.0856 29.3761 36.12 29.3691C36.5354 29.2895 36.0982 28.893 35.8144 28.1912C35.7435 28.0148 36.4498 28.5484 36.5036 28.5858C36.7016 28.7237 37.0202 29.1895 37.065 29.2107C37.4224 29.3721 36.1937 27.9821 36.3632 27.8359C36.3705 27.8336 36.5705 28.1119 36.6069 28.1255C36.7205 28.1684 36.6762 28.0277 36.7961 28.0797C37.0725 28.201 37.6935 28.856 37.5046 28.3274C37.4797 28.2591 36.7667 27.4842 36.9522 27.3913C37.0273 27.3544 37.2839 27.1123 37.4039 27.1C37.5234 27.0878 37.6911 27.3903 37.7059 27.3969C38.1992 27.5664 38.2424 27.7735 38.7732 28.1938C39.3021 28.6124 38.2548 27.4325 38.1828 27.2628C38.1114 27.0932 38.4991 27.2499 38.6185 27.3175C38.738 27.385 38.8314 27.588 38.9108 27.6163C39.4326 27.7985 38.5006 26.9381 38.4104 26.6867C38.1968 26.0915 39.0813 26.8761 39.3092 26.8345C39.3707 26.8233 39.1655 26.6477 39.1865 26.5976C39.2718 26.4018 39.5943 26.6079 39.547 26.2112C39.5393 26.1465 39.2245 25.4932 39.6432 25.816C39.7033 25.8628 39.8546 26.1162 39.9594 26.1138C40.1164 26.1105 40.3249 26.0199 40.3636 25.8611C40.392 25.7438 39.9997 25.4452 40.1888 25.4821C40.2731 25.4987 40.3753 25.779 40.5186 25.7923C40.6614 25.8059 40.8531 25.631 40.9231 25.5605C40.9925 25.4902 40.7188 25.2438 40.7093 25.2198C40.6565 25.081 40.6899 24.8254 40.7031 24.8151C41.325 24.2438 42.3156 24.226 42.8203 23.5528C42.8604 23.5002 42.5846 23.2293 42.5883 23.2182C42.6577 22.9542 43.1677 23.8562 43.5027 24.0244C42.9935 23.4336 43.1532 23.4856 43.2197 23.3214C43.2511 23.242 43.0294 23.0332 43.0152 23.0049C42.8119 22.5793 43.2451 22.9905 43.3368 23.0722C43.6743 23.3722 43.4046 22.9129 43.631 23.113C43.8558 23.3113 44.0428 23.724 44.1544 23.6263C44.0111 23.3832 43.4663 22.8859 43.4797 22.723C43.531 22.1058 44.5077 22.0535 44.8131 21.8845C45.1158 21.7175 45.1698 21.6083 45.3883 21.5625C45.7832 21.4799 45.3423 21.1397 45.3623 20.8065C45.3823 20.4735 46.1286 21.5815 46.3323 21.7851C46.5354 21.989 46.3785 21.7374 46.5072 21.8359C46.6358 21.9344 46.6913 22.1392 46.7998 22.1281C46.9082 22.117 46.7874 21.5623 46.6265 21.3079C46.2854 20.769 45.7816 20.3195 46.1186 20.35C46.1382 20.3521 46.3206 20.6543 46.3848 20.6485C46.8866 20.5934 47.2428 20.3319 47.7256 20.2536C47.792 20.2435 47.9929 20.5812 48.0343 20.5788C48.4662 20.5546 47.9595 20.1182 47.6595 19.4253C48.2275 20.2139 48.6799 20.6132 48.8947 20.451C49.0241 20.3536 48.7395 20.0381 48.6368 19.7385C48.6059 19.6481 48.8756 19.8062 48.7684 19.6368C48.4185 19.0826 47.882 18.5763 48.28 18.6327C48.2981 18.636 48.4884 18.9402 48.5349 18.9312C48.8361 18.874 48.44 18.3181 48.6211 18.0707C48.7632 17.8766 49.3416 17.9511 49.5906 17.842C50.2594 18.7045 50.3005 18.3548 49.9162 17.7C50.069 17.6195 50.1877 17.4727 50.3815 17.4532C50.448 17.4463 50.6132 17.7182 50.6399 17.7407C51.056 18.0954 50.6637 17.4728 50.6751 17.4275C50.8188 16.9612 51.4144 17.2006 51.382 16.5386C51.3807 16.5149 50.9324 15.9031 51.3528 16.2774C51.3814 16.3035 51.4938 16.6531 51.6517 16.564C51.8103 16.4745 52.3246 16.5896 52.3057 16.1596C52.3013 16.056 52.0443 15.4763 52.4357 15.7814C52.4886 15.823 52.6077 16.0058 52.7005 16.087C52.9967 16.3452 52.5601 15.714 53.0295 16.1739C53.4986 16.634 53.943 16.9064 53.8659 16.3981C53.8642 16.3829 53.5393 15.8663 53.6075 15.8257C53.7167 15.7613 53.9354 15.7521 54.0371 15.6685C54.0856 15.6284 53.8231 15.3546 53.8276 15.3424C54.0321 14.9174 54.4759 14.9996 54.924 14.8384C55.0063 14.8097 54.8812 14.2569 55.2565 14.4811C55.6678 14.7263 56.6534 16.3042 56.7055 15.7076C56.7275 15.468 55.4598 13.4795 56.4342 14.2658C56.7027 13.6793 57.4991 13.8535 57.6913 13.164C57.7001 13.1332 57.3662 12.5632 57.4197 12.5335C57.5 12.4902 57.725 12.7039 57.7881 12.681C58.057 12.5915 58.0927 12.2341 58.3234 12.1092C58.4105 12.0612 58.5756 12.3339 58.6796 12.2767C58.7834 12.2192 58.5918 11.8406 58.8401 11.9045C59.0285 11.9539 59.6411 12.5591 59.8278 12.5417C59.3223 11.8693 59.4196 11.8168 59.4395 11.5224C59.443 11.4654 59.2336 11.257 59.2261 11.218C59.1918 11.0544 59.3921 11.2068 59.3466 11.0349C59.3359 10.9935 59.1623 10.7646 59.1437 10.7179C58.9788 10.3116 59.5217 10.7102 59.6158 10.7799C59.9743 11.0439 59.7944 10.7113 59.9727 10.787C60.1509 10.8627 60.1644 11.1168 60.3153 11.1302C60.628 11.1574 60.8372 10.9398 61.0322 10.8079C61.1091 10.7538 60.8258 10.4875 60.8314 10.4726C60.9271 10.2776 61.3306 10.4831 60.954 9.80989C62.2571 11.3 60.9316 9.58619 61.3921 9.73269C61.4288 9.7449 62.0163 10.4715 62.0325 10.6314C62.0488 10.7911 61.7703 10.6362 61.8069 10.8768C61.8153 10.9335 62.2194 11.7257 62.2344 11.781C62.3509 12.2129 61.4866 11.1168 61.433 11.0613C60.8513 10.4644 61.2688 11.3315 61.2679 11.4141C61.2642 11.7921 60.9871 11.7565 60.9616 12.0438C60.9438 12.2305 61.4881 12.9651 61.3917 13.0034C61.0718 13.131 60.2066 12.187 60.628 13.2563C60.7177 13.4845 61.3769 14.2384 60.7091 13.7596C60.6671 13.7294 60.0891 13.2664 60.2831 13.6903C60.3076 13.7437 60.4847 13.9749 60.486 14.0046C60.4912 14.1998 60.2898 14.0616 60.2584 14.2254C60.2267 14.3895 60.2081 14.6122 60.035 14.6202C59.931 14.6254 59.5141 14.2612 59.4007 14.1806C59.0762 13.9471 59.3588 14.5209 59.0203 14.1965C58.6798 13.8706 58.3624 13.2229 58.0288 13.0993C58.483 13.7044 58.9421 14.3309 59.3956 14.9419C59.0486 15.174 58.5749 15.2287 58.2646 15.5089C58.2264 15.5443 58.5161 15.8347 58.4815 15.881C58.3349 16.0749 57.9962 15.9695 57.8743 16.2087C57.7808 16.3952 57.8807 16.8616 57.7907 17.0676C57.1678 16.4545 57.1159 16.8653 56.9002 16.9315C56.8249 16.955 56.6877 16.7688 56.6 16.7412C56.2724 16.6414 56.813 17.1906 56.8434 17.3192C56.9718 17.869 55.8985 16.51 55.7059 16.7126C55.6953 16.7229 56.1178 17.5627 56.1335 17.6232C56.239 18.0153 55.9167 17.3847 55.7977 17.3904C55.5803 17.4009 55.3478 17.3019 55.3468 17.6444C55.3473 17.7452 55.5832 18.29 55.2171 18.0106C55.1691 17.9741 54.9892 17.7275 54.9684 17.7211C54.6062 17.6248 55.1883 18.3865 55.2846 18.7225C55.381 19.0584 54.8173 18.6581 54.6679 18.5325C54.281 18.2082 54.6036 18.3156 54.5785 18.2738C54.2794 17.7766 54.2241 17.945 54.1057 17.9752C53.5169 17.2423 53.4275 17.3831 53.9853 18.0095C54.0464 18.0777 54.0616 17.955 54.1057 17.9752C54.5931 18.7643 54.5299 18.9628 53.8515 18.3984C53.5336 18.1339 53.311 17.7104 53.2035 18.0121C53.1546 18.1486 53.5892 18.6305 53.6121 18.8362C53.6637 19.306 53.0396 19.0267 52.8974 19.2581C52.8458 19.3421 53.1345 19.5663 53.1068 19.6333C53.0342 19.8117 52.7539 19.6932 52.7049 19.9043C52.7007 19.9238 52.9583 20.1932 52.9199 20.2291C52.6333 20.5075 52.2171 20.5315 51.8859 20.7826C51.7264 20.9037 51.5717 21.2851 51.3841 21.3802C51.0585 21.5481 50.3779 21.3976 50.2189 21.6899C50.1134 21.88 50.3778 22.1439 50.467 22.3954C50.6408 22.8824 49.8675 22.3751 49.7523 22.293C49.7485 22.2903 49.8292 22.115 49.6391 22.0226C49.3511 21.7445 49.7527 22.2905 49.7523 22.293C49.6774 22.2403 49.3567 22.3868 49.3467 22.4852C49.3416 22.5387 49.5762 22.8012 49.5695 22.8239C49.4036 23.3567 49.1022 23.7103 48.6344 23.873C48.6236 23.8726 48.3882 23.5575 48.3657 23.5603C48.0458 23.5919 48.2111 24.0753 48.2166 24.4365C48.2208 24.7985 48.0239 24.8337 47.4992 24.3894C47.4215 24.5605 47.0477 24.4781 46.8267 24.4235C46.6049 24.3695 47.0694 24.9779 47.0694 24.9973C47.0765 25.613 46.6322 25.4085 46.2831 25.603C46.1158 25.6948 45.897 26.0148 45.7931 26.207C45.7118 26.3598 45.5237 26.2815 45.4814 26.4638C45.4755 26.4883 45.7062 26.7399 45.7097 26.7539C45.8392 27.174 45.3749 26.478 45.2546 26.3841C44.8175 26.0424 44.5761 25.8674 44.5736 26.1979C44.5726 26.2738 45.2215 27.2922 45.1978 27.4022C45.1652 27.5438 44.9266 27.1836 44.899 27.3406C44.8964 27.3538 45.066 27.5577 45.001 27.5958C44.701 27.7756 44.3152 27.8926 44.0539 28.1423C44.0177 28.1755 44.3336 28.4602 44.2858 28.5135C44.0612 28.7631 43.7737 28.9806 43.3984 29.0361C43.3054 29.0485 43.1557 28.79 43.0866 28.7337C42.6669 28.3943 43.0424 29.0819 43.0329 29.1089C42.8164 29.7693 42.0223 29.5261 41.7741 30.1673C41.7613 30.2035 42.0995 30.9961 41.5583 30.5279C41.5222 30.4968 40.9708 30.0158 41.2148 30.4569C41.2301 30.4845 41.523 30.7244 41.4065 30.7731C41.2902 30.8218 41.3014 31.138 40.9103 30.9334C40.7869 30.869 40.2248 30.3998 40.4777 30.9396C40.4954 30.9772 41.1557 32.1227 40.5074 31.4965C40.401 31.3932 39.796 30.6614 39.9689 31.1537C40.0029 31.2488 40.1899 31.3676 40.204 31.5294C40.2266 31.7782 39.9159 31.7093 40.0573 32.1453C40.0826 32.2222 40.4032 32.7962 40.0042 32.4943C39.9417 32.447 39.7589 32.1862 39.6934 32.1958C39.3808 32.2402 39.3097 32.5816 38.9637 32.5913C38.8409 32.5957 38.5423 32.1765 38.3768 32.1382C38.2113 32.1 37.9727 32.1324 38.0479 32.3774C38.1233 32.6224 38.7451 33.1637 38.6711 33.3149C38.4805 33.7054 38.1102 33.8948 37.7297 34.0642C37.469 34.1814 37.2022 34.2906 36.9803 34.45C36.8988 34.5085 37.1551 34.6715 37.0487 34.7737C36.6547 35.1529 36.1432 35.9815 35.3771 35.8387C34.7614 35.726 34.8614 35.1238 34.5098 35.1697C34.3407 35.1929 34.8681 35.9967 34.8636 36.0413C34.8271 36.4854 34.3711 36.3327 34.2408 36.6275C34.214 36.6885 34.5184 36.9314 34.4927 36.9801C34.408 37.1486 34.1537 37.1494 34.0498 37.2881C34.0038 37.351 34.2136 37.5573 34.1468 37.5882C33.9891 37.6647 33.7972 37.6741 33.4903 37.5832C33.4621 37.575 33.2878 37.238 33.1867 37.3134C33.0239 37.4359 32.6551 37.4081 32.6782 37.7706C32.6855 37.8794 33.1438 38.3704 32.7179 38.1336C32.629 38.0841 32.1064 37.4685 32.4568 38.0953C32.5144 38.2 32.9477 39.0825 32.4302 38.7376C32.2936 38.6472 31.7728 38.231 31.7827 38.3643C31.7859 38.3841 32.0663 38.6155 32.0403 38.6884C31.9445 38.9407 31.7346 39.0864 31.6342 39.3376C31.6072 39.4059 31.9362 39.6083 31.8878 39.7014C31.7546 39.9581 31.4471 40.12 31.1743 40.2195C31.073 40.2559 30.9081 39.9856 30.8797 39.9662C30.4178 39.6506 30.8802 40.231 30.8827 40.2883C30.8905 40.6383 30.5237 40.5097 30.4285 40.7291C30.402 40.7886 30.6775 41.0124 30.6906 41.0433C30.8144 41.3504 30.4416 40.831 30.3365 40.8354C30.0404 40.8469 29.8871 41.0348 29.7566 41.2244C29.7096 41.2938 30.0604 41.5225 30.0151 41.5814C29.7545 41.9328 29.4027 42.222 28.9456 42.3554C28.858 42.381 28.6736 42.1211 28.6113 42.0817C28.1762 41.8045 28.5369 42.4115 28.5554 42.485C28.6397 42.8207 28.397 42.6694 28.3231 42.8154C27.9653 43.5323 27.1729 44.0632 26.5876 44.4915C25.8262 45.0508 25.1043 45.3585 24.5361 46.0522C24.4995 46.0962 24.8392 46.3472 24.8116 46.3888C24.4454 46.9091 23.8944 47.2429 23.5412 47.7834C23.5119 47.8271 23.8492 48.0488 23.8119 48.1279C23.7401 48.2894 23.569 48.4361 23.3598 48.471C23.2579 48.489 23.09 48.1723 22.9925 48.1952C22.7641 48.2487 22.5933 48.3859 22.501 48.5741C22.4599 48.6573 22.8451 48.8418 22.7691 48.9279C22.3838 49.3746 22.0146 49.8314 21.4439 50.1122C21.4389 50.1162 21.4266 50.1313 21.4216 50.1353C21.2513 50.2165 21.0674 50.2776 20.857 50.3208C20.7946 50.3336 20.1687 49.7946 20.2052 49.9846C20.3643 50.1494 20.5585 50.3358 20.7322 50.508C20.0657 51.3904 19.1139 51.9835 18.3366 52.7627C18.3036 52.796 18.6798 53.0324 18.6177 53.0981C18.2615 53.476 18.0145 53.9275 17.337 54.0316C17.2699 54.0427 16.7157 53.5093 16.6984 53.7028C16.697 53.7359 16.6142 53.9822 16.6997 54.1371C16.713 54.16 17.0089 54.3673 16.9669 54.43C16.7137 54.7956 16.3511 55.0823 15.8918 55.273C15.8175 55.303 15.5807 54.9937 15.5253 55.0127C15.1349 55.1498 15.0912 55.6414 14.5925 55.6828C14.2586 55.7083 13.8205 55.2066 13.2507 54.8693C13.1689 54.8234 13.0608 54.9229 12.7725 54.6778C12.051 54.0577 11.3216 53.311 10.5466 52.6568C10.3781 52.5178 10.4372 52.8038 10.1133 52.3749C10.0913 52.3466 10.0477 52.1326 9.93521 51.9896C9.85775 51.8905 9.54328 51.6653 9.45542 51.5256C9.36859 51.385 9.64065 51.5643 9.55448 51.3806C9.46378 51.1986 9.11279 50.9351 9.17772 50.7828ZM45.8324 24.185C45.5018 23.9796 46.332 25.039 46.2378 24.7014C46.2322 24.6838 45.8489 24.1949 45.8324 24.185ZM57.9594 14.4215C57.4646 14.0527 57.9045 14.8154 58.2775 15.1071C58.6502 15.3985 58.1095 14.5331 57.9594 14.4215ZM59.0833 13.0155C58.6424 12.7634 59.7769 14.2985 59.7102 13.8639C59.7067 13.8391 59.109 13.0301 59.0833 13.0155ZM13.4978 54.3089C13.4832 54.2984 13.4018 54.3648 13.4128 54.3791C13.6972 54.7031 13.8614 54.5683 13.4978 54.3089ZM60.1754 11.5884C59.97 11.4203 60.0101 11.7646 60.2654 11.9736C60.4709 12.1417 60.431 11.7974 60.1754 11.5884ZM39.7356 27.3343C39.7212 27.3202 39.6521 27.3546 39.7262 27.4405C39.9648 27.7169 39.9785 27.5709 39.7356 27.3343ZM62.5083 9.78531C62.1177 9.99186 60.9533 8.89667 61.4389 8.75104C61.5268 8.72464 61.5956 9.26342 61.7687 9.31036C62.0848 9.3954 61.5918 8.52676 62.0756 8.82532C62.1638 8.88025 62.5326 9.77634 62.509 9.78753C62.5087 9.78678 62.5085 9.78605 62.5083 9.78531ZM44.7601 22.973C44.7469 22.9607 44.6558 23.0125 44.665 23.0278C44.8898 23.3954 45.0732 23.2915 44.7601 22.973ZM35.8724 29.5368C35.8431 29.5119 35.638 29.6433 35.6551 29.6748C36.0195 30.284 36.4342 30.021 35.8724 29.5368ZM49.6118 17.8623C49.4358 17.4541 49.5116 17.3305 49.9155 17.6998C49.8091 17.7467 49.7172 17.8133 49.6118 17.8623Z"/></svg>